<?xml version="1.0" encoding="utf-8"?>
<svg version="1.0" viewBox="355.7167 -76.5585 556.1533 976.6197" xmlns="http://www.w3.org/2000/svg"  preserveAspectRatio="xMidYMid meet">
  <g fill="#000000" stroke="none">
    <path d="M 802.331 329.784 L 802.331 558.788 L 784.265 558.788 Q 775.476 492.87 752.771 453.807 Q 730.065 414.745 688.073 391.796 Q 646.081 368.846 601.159 368.846 Q 550.378 368.846 517.175 399.852 Q 483.972 430.858 483.972 470.409 Q 483.972 500.682 504.968 525.585 Q 535.241 562.206 649.011 623.241 Q 741.784 673.046 775.72 699.657 Q 809.655 726.268 827.966 762.401 Q 846.276 798.534 846.276 838.085 Q 846.276 913.28 787.927 967.723 Q 729.577 1022.167 637.78 1022.167 Q 608.972 1022.167 583.581 1017.772 Q 568.444 1015.331 520.837 999.95 Q 473.23 984.569 460.534 984.569 Q 448.327 984.569 441.247 991.893 Q 434.167 999.218 430.749 1022.167 L 412.683 1022.167 L 412.683 795.116 L 430.749 795.116 Q 443.444 866.405 464.929 901.805 Q 486.413 937.206 530.603 960.643 Q 574.792 984.081 627.526 984.081 Q 688.562 984.081 723.962 951.854 Q 759.362 919.628 759.362 875.682 Q 759.362 851.268 745.935 826.366 Q 732.507 801.464 704.187 779.979 Q 685.144 765.331 600.183 717.723 Q 515.222 670.116 479.333 641.796 Q 443.444 613.475 424.89 579.296 Q 406.335 545.116 406.335 504.1 Q 406.335 432.811 461.022 381.298 Q 515.71 329.784 600.183 329.784 Q 652.917 329.784 711.999 355.663 Q 739.343 367.87 750.573 367.87 Q 763.269 367.87 771.325 360.302 Q 779.382 352.733 784.265 329.784 Z M 343.835 1079.133 L 899.987 1079.133 L 899.987 1123.689 L 343.835 1123.689 Z" transform="matrix(1, 0, 0, 0.92442, 9.587773, -214.822193)" style="text-decoration: underline solid rgba(255, 255, 255, 0.9);"/>
  </g>
</svg>
