<?xml version="1.0" standalone="no"?>
<!DOCTYPE svg PUBLIC "-//W3C//DTD SVG 20010904//EN"
 "http://www.w3.org/TR/2001/REC-SVG-20010904/DTD/svg10.dtd">
<svg version="1.0" xmlns="http://www.w3.org/2000/svg"
 width="1280.000000pt" height="960.000000pt" viewBox="0 0 1280.000000 960.000000"
 preserveAspectRatio="xMidYMid meet">
<metadata>
Created by potrace 1.15, written by Peter Selinger 2001-2017
</metadata>
<g transform="translate(0.000000,960.000000) scale(0.100000,-0.100000)"
fill="#000000" stroke="none">
<path d="M3110 4686 l0 -4143 61 -7 c34 -3 457 -6 940 -6 l878 0 12 22 c17 33
5 2956 -15 3698 -21 740 -63 1733 -82 1940 -4 44 -2 62 4 55 6 -5 37 -77 70
-160 283 -709 714 -1628 1164 -2485 250 -475 354 -673 458 -870 54 -102 214
-405 355 -675 142 -269 277 -526 300 -570 24 -44 115 -217 203 -385 87 -168
189 -362 226 -431 l66 -126 53 -7 c28 -3 496 -6 1039 -6 966 0 988 0 998 19
11 21 15 8196 4 8225 -3 9 -12 16 -19 16 -8 0 -17 9 -20 20 -6 20 -15 20 -932
20 l-925 0 5 -1522 c3 -838 10 -1624 16 -1748 5 -124 15 -344 21 -490 6 -146
13 -292 15 -325 2 -33 9 -145 15 -250 6 -104 13 -212 15 -240 2 -27 9 -120 15
-205 6 -85 13 -175 15 -200 28 -266 49 -564 39 -540 -273 653 -501 1154 -794
1745 -109 220 -238 472 -285 560 -82 152 -856 1630 -1395 2665 -194 373 -261
492 -289 517 l-36 32 -1097 1 -1098 0 0 -4144z"/>
</g>
</svg>
