<?xml version="1.0" standalone="no"?>
<!DOCTYPE svg PUBLIC "-//W3C//DTD SVG 20010904//EN"
 "http://www.w3.org/TR/2001/REC-SVG-20010904/DTD/svg10.dtd">
<svg version="1.0" xmlns="http://www.w3.org/2000/svg"
 width="1280.000000pt" height="1204.000000pt" viewBox="0 0 1280.000000 1204.000000"
 preserveAspectRatio="xMidYMid meet">
<metadata>
Created by potrace 1.15, written by Peter Selinger 2001-2017
</metadata>
<g transform="translate(0.000000,1204.000000) scale(0.100000,-0.100000)"
fill="#000000" stroke="none">
<path d="M557 11525 l-27 -26 0 -404 0 -404 43 -5 c23 -3 133 -14 244 -26 414
-43 712 -114 867 -205 147 -87 227 -256 274 -580 16 -112 17 -370 17 -3880 0
-3564 -1 -3766 -18 -3880 -37 -251 -97 -413 -187 -505 -140 -144 -516 -239
-1162 -296 l-78 -6 0 -406 0 -406 27 -28 27 -28 1911 0 1911 0 27 28 27 28 0
406 0 406 -87 7 c-656 48 -1029 144 -1171 300 -114 125 -178 334 -202 663 -8
102 -10 1128 -8 3361 l3 3213 1909 -2473 c1050 -1361 2542 -3294 3315 -4296
l1406 -1823 626 0 626 0 21 23 22 23 3 4724 c2 4400 4 4733 20 4836 70 453
178 591 547 697 162 47 494 97 740 112 52 3 110 8 128 11 l32 5 0 408 0 408
-23 21 -23 22 -1925 0 -1926 0 -21 -23 c-22 -23 -22 -26 -22 -430 l0 -406 33
-5 c17 -2 97 -9 176 -15 394 -31 708 -96 901 -189 216 -104 317 -331 350 -782
7 -98 10 -1006 8 -2809 l-3 -2665 -2839 3662 -2840 3662 -1826 0 -1825 0 -28
-25z"/>
</g>
</svg>
